<svg width="25" height="25" viewBox="0 0 25 25" fill="none" xmlns="http://www.w3.org/2000/svg">
<path d="M22.3082 19.0691C22.3082 19.4291 22.2282 19.7991 22.0582 20.1591C21.8883 20.519 21.6683 20.859 21.3783 21.179C20.8883 21.7189 20.3484 22.1089 19.7384 22.3589C19.1385 22.6089 18.4885 22.7389 17.7886 22.7389C16.7687 22.7389 15.6788 22.4989 14.5289 22.0089C13.3789 21.5189 12.229 20.859 11.0891 20.0291C9.93923 19.1891 8.84931 18.2592 7.8094 17.2293C6.77948 16.1894 5.84956 15.0995 5.01963 13.9596C4.19969 12.8197 3.53975 11.6798 3.05979 10.5498C2.57982 9.40994 2.33984 8.32002 2.33984 7.28011C2.33984 6.60016 2.45983 5.95022 2.69981 5.35027C2.93979 4.74032 3.31976 4.18036 3.84972 3.6804C4.48967 3.05045 5.18961 2.74048 5.92955 2.74048C6.20953 2.74048 6.48951 2.80047 6.73949 2.92046C6.99946 3.04045 7.22945 3.22044 7.40943 3.48042L9.72924 6.75015C9.90923 7.00013 10.0392 7.23011 10.1292 7.4501C10.2192 7.66008 10.2692 7.87006 10.2692 8.06005C10.2692 8.30003 10.1992 8.54001 10.0592 8.76999C9.92923 8.99997 9.73924 9.23995 9.49926 9.47993L8.73932 10.2699C8.62933 10.3799 8.57934 10.5098 8.57934 10.6698C8.57934 10.7498 8.58934 10.8198 8.60933 10.8998C8.63933 10.9798 8.66933 11.0398 8.68933 11.0998C8.86931 11.4298 9.17929 11.8597 9.61925 12.3797C10.0692 12.8997 10.5492 13.4296 11.0691 13.9596C11.6091 14.4895 12.129 14.9795 12.659 15.4294C13.179 15.8694 13.6089 16.1694 13.9489 16.3494C13.9989 16.3694 14.0589 16.3994 14.1289 16.4294C14.2089 16.4594 14.2889 16.4694 14.3789 16.4694C14.5489 16.4694 14.6788 16.4094 14.7888 16.2994L15.5488 15.5494C15.7987 15.2995 16.0387 15.1095 16.2687 14.9895C16.4987 14.8495 16.7287 14.7795 16.9787 14.7795C17.1686 14.7795 17.3686 14.8195 17.5886 14.9095C17.8086 14.9995 18.0386 15.1295 18.2885 15.2995L21.5983 17.6493C21.8583 17.8292 22.0382 18.0392 22.1482 18.2892C22.2482 18.5392 22.3082 18.7892 22.3082 19.0691Z" stroke="#FF9A1E" stroke-width="1.5" stroke-miterlimit="10"/>
</svg>
