<svg width="174" height="40" viewBox="0 0 174 40" fill="none" xmlns="http://www.w3.org/2000/svg">
<g filter="url(#filter0_d_3084_15046)">
<path d="M55.8124 28.875C54.2023 28.875 52.8121 28.5225 51.6418 27.8175C50.4789 27.1125 49.5807 26.1263 48.947 24.8587C48.3209 23.5912 48.0078 22.1175 48.0078 20.4375C48.0078 18.7575 48.3209 17.2838 48.947 16.0163C49.5807 14.7488 50.4789 13.7625 51.6418 13.0575C52.8121 12.3525 54.2023 12 55.8124 12C57.6611 12 59.2116 12.4612 60.4639 13.3837C61.7237 14.3062 62.6107 15.555 63.125 17.13L60.0614 17.985C59.7632 17.0025 59.26 16.2413 58.5519 15.7013C57.8437 15.1537 56.9306 14.88 55.8124 14.88C54.7912 14.88 53.9377 15.1087 53.2519 15.5663C52.5735 16.0238 52.0629 16.6687 51.72 17.5012C51.3771 18.3337 51.2057 19.3125 51.2057 20.4375C51.2057 21.5625 51.3771 22.5413 51.72 23.3737C52.0629 24.2062 52.5735 24.8513 53.2519 25.3088C53.9377 25.7663 54.7912 25.995 55.8124 25.995C56.9306 25.995 57.8437 25.7213 58.5519 25.1738C59.26 24.6262 59.7632 23.865 60.0614 22.89L63.125 23.745C62.6107 25.32 61.7237 26.5688 60.4639 27.4913C59.2116 28.4138 57.6611 28.875 55.8124 28.875Z" fill="#202427"/>
<path d="M70.5292 28.8975C69.5825 28.8975 68.811 28.7362 68.2147 28.4137C67.6183 28.0912 67.1524 27.6825 66.817 27.1875C66.489 26.6925 66.2542 26.1788 66.1126 25.6462C65.9709 25.1063 65.8852 24.615 65.8554 24.1725C65.8256 23.73 65.8107 23.4075 65.8107 23.205V16.3875H68.8967V22.125C68.8967 22.4025 68.9117 22.7588 68.9415 23.1938C68.9713 23.6213 69.0645 24.0525 69.221 24.4875C69.3775 24.9225 69.631 25.2862 69.9813 25.5787C70.3391 25.8713 70.8423 26.0175 71.4908 26.0175C71.7517 26.0175 72.0313 25.9763 72.3294 25.8938C72.6276 25.8113 72.9071 25.6538 73.168 25.4212C73.4289 25.1812 73.6414 24.8325 73.8054 24.375C73.9768 23.91 74.0625 23.3025 74.0625 22.5525V16.3875H77.1262V28.5375H74.4427V27.2846C74.1621 27.5991 73.8378 27.878 73.4699 28.1213C72.6947 28.6388 71.7145 28.8975 70.5292 28.8975Z" fill="#202427"/>
<path d="M88.928 22.8V28.5375H92.0141V21.72C92.0141 21.5175 91.9992 21.195 91.9694 20.7525C91.9396 20.31 91.8538 19.8225 91.7122 19.29C91.5706 18.75 91.332 18.2325 90.9966 17.7375C90.6686 17.2425 90.2064 16.8337 89.6101 16.5112C89.0138 16.1887 88.2422 16.0275 87.2956 16.0275C86.1103 16.0275 85.1264 16.2862 84.3437 16.8037C83.9806 17.0461 83.6601 17.3238 83.3821 17.6368V16.3875H80.6762V28.5375H83.7622V22.3725C83.7622 21.615 83.8442 21.0075 84.0082 20.55C84.1797 20.0925 84.3958 19.7475 84.6567 19.515C84.9176 19.275 85.1972 19.1137 85.4953 19.0312C85.7935 18.9488 86.0731 18.9075 86.334 18.9075C86.9825 18.9075 87.4819 19.0538 87.8323 19.3463C88.1901 19.6388 88.4472 20.0025 88.6038 20.4375C88.7603 20.8725 88.8535 21.3075 88.8833 21.7425C88.9131 22.17 88.928 22.5225 88.928 22.8Z" fill="#202427"/>
<path fill-rule="evenodd" clip-rule="evenodd" d="M100.757 28.875C99.52 28.875 98.428 28.6088 97.4813 28.0763C96.542 27.5363 95.8041 26.7975 95.2674 25.86C94.7381 24.915 94.4735 23.835 94.4735 22.62C94.4735 21.2925 94.7344 20.1375 95.2562 19.155C95.778 18.1725 96.4973 17.4113 97.4142 16.8713C98.3311 16.3238 99.3858 16.05 100.579 16.05C101.846 16.05 102.923 16.35 103.81 16.95C104.697 17.55 105.353 18.3937 105.778 19.4812C106.203 20.5687 106.352 21.8475 106.225 23.3175H97.7458C97.8409 24.0467 98.0657 24.6392 98.4205 25.095C98.9125 25.71 99.6318 26.0175 100.579 26.0175C101.175 26.0175 101.685 25.8863 102.11 25.6238C102.535 25.3613 102.86 24.9825 103.083 24.4875L106.124 25.365C105.67 26.475 104.95 27.3375 103.966 27.9525C102.99 28.5675 101.92 28.875 100.757 28.875ZM102.625 19.5262C102.885 19.8815 103.059 20.3878 103.148 21.045H97.8259C97.9444 20.4838 98.1426 20.0226 98.4205 19.6613C98.9125 19.0238 99.6765 18.705 100.713 18.705C101.6 18.705 102.237 18.9787 102.625 19.5262Z" fill="#202427"/>
<path d="M109.421 12V14.7H112.462V12H109.421Z" fill="#202427"/>
<path d="M109.421 16.3875V28.5375H112.462V16.3875H109.421Z" fill="#202427"/>
<path d="M122.691 28.875C121.088 28.875 119.743 28.5188 118.654 27.8063C117.566 27.0863 116.746 26.0925 116.194 24.825C115.643 23.5575 115.367 22.095 115.367 20.4375C115.367 18.78 115.643 17.3175 116.194 16.05C116.746 14.7825 117.566 13.7925 118.654 13.08C119.743 12.36 121.088 12 122.691 12C124.562 12 126.079 12.4875 127.242 13.4625C128.412 14.4375 129.206 15.7425 129.623 17.3775L128.293 17.7038C127.95 16.3463 127.309 15.27 126.369 14.475C125.438 13.6725 124.211 13.2712 122.691 13.2712C121.371 13.2712 120.272 13.575 119.392 14.1825C118.52 14.79 117.86 15.6338 117.413 16.7138C116.973 17.7937 116.75 19.035 116.742 20.4375C116.727 21.84 116.94 23.0813 117.38 24.1613C117.827 25.2338 118.494 26.0775 119.381 26.6925C120.268 27.3 121.371 27.6038 122.691 27.6038C124.211 27.6038 125.438 27.2025 126.369 26.4C127.309 25.5975 127.95 24.5212 128.293 23.1712L129.623 23.4975C129.206 25.1325 128.412 26.4375 127.242 27.4125C126.079 28.3875 124.562 28.875 122.691 28.875Z" fill="#202427"/>
<path fill-rule="evenodd" clip-rule="evenodd" d="M134.421 28.0538C135.256 28.6013 136.273 28.875 137.473 28.875C138.659 28.875 139.672 28.605 140.515 28.065C141.357 27.525 141.998 26.775 142.438 25.815C142.878 24.8475 143.098 23.7225 143.098 22.44C143.098 21.1875 142.878 20.0812 142.438 19.1213C142.005 18.1613 141.368 17.4113 140.526 16.8713C139.691 16.3238 138.673 16.05 137.473 16.05C136.295 16.05 135.285 16.3163 134.443 16.8488C133.608 17.3813 132.967 18.1312 132.52 19.0987C132.073 20.0588 131.849 21.1725 131.849 22.44C131.849 23.7 132.069 24.8138 132.509 25.7813C132.949 26.7487 133.586 27.5063 134.421 28.0538ZM140.66 26.175C139.959 27.135 138.897 27.615 137.473 27.615C136.079 27.615 135.021 27.1425 134.298 26.1975C133.582 25.2525 133.224 24 133.224 22.44C133.224 21.435 133.377 20.55 133.683 19.785C133.996 19.0125 134.465 18.4088 135.092 17.9738C135.718 17.5313 136.512 17.31 137.473 17.31C138.89 17.31 139.952 17.775 140.66 18.705C141.368 19.635 141.722 20.88 141.722 22.44C141.722 23.97 141.368 25.215 140.66 26.175Z" fill="#202427"/>
<path fill-rule="evenodd" clip-rule="evenodd" d="M150.645 28.875C149.505 28.875 148.539 28.5937 147.749 28.0312C146.966 27.4612 146.366 26.6925 145.949 25.725C145.539 24.75 145.334 23.655 145.334 22.44C145.334 21.24 145.539 20.1562 145.949 19.1888C146.359 18.2213 146.948 17.4562 147.716 16.8937C148.491 16.3312 149.426 16.05 150.522 16.05C151.648 16.05 152.598 16.3275 153.373 16.8825C153.879 17.2446 154.304 17.6945 154.648 18.2322V12.3375H155.934V28.5375H154.76V26.4711C154.402 27.0914 153.951 27.6077 153.407 28.02C152.654 28.59 151.733 28.875 150.645 28.875ZM154.313 25.1063C154.611 24.3187 154.76 23.43 154.76 22.44C154.76 21.4425 154.611 20.5538 154.313 19.7738C154.014 18.9938 153.567 18.3863 152.971 17.9513C152.374 17.5087 151.633 17.2875 150.746 17.2875C149.829 17.2875 149.072 17.5163 148.476 17.9738C147.88 18.4238 147.436 19.0388 147.145 19.8188C146.855 20.5912 146.709 21.465 146.709 22.44C146.709 23.4225 146.858 24.3075 147.157 25.095C147.462 25.875 147.909 26.4938 148.498 26.9513C149.095 27.4088 149.836 27.6375 150.723 27.6375C151.625 27.6375 152.374 27.4125 152.971 26.9625C153.575 26.505 154.022 25.8862 154.313 25.1063Z" fill="#202427"/>
<path fill-rule="evenodd" clip-rule="evenodd" d="M161.491 28.0988C162.333 28.6163 163.332 28.875 164.487 28.875C165.665 28.875 166.712 28.59 167.629 28.02C168.546 27.45 169.247 26.64 169.731 25.59L168.569 25.0725C168.159 25.89 167.603 26.52 166.902 26.9625C166.209 27.3975 165.397 27.615 164.465 27.615C163.116 27.615 162.068 27.165 161.323 26.265C160.642 25.4343 160.275 24.2906 160.223 22.8337H169.989C170.011 21.4088 169.802 20.19 169.362 19.1775C168.93 18.165 168.296 17.3925 167.462 16.86C166.634 16.32 165.635 16.05 164.465 16.05C163.31 16.05 162.311 16.3088 161.468 16.8263C160.633 17.3437 159.985 18.0862 159.523 19.0537C159.068 20.0137 158.841 21.1575 158.841 22.485C158.841 23.79 159.072 24.9225 159.534 25.8825C159.996 26.835 160.648 27.5738 161.491 28.0988ZM168.608 21.6638C168.491 20.3487 168.131 19.3212 167.529 18.5813C166.82 17.7113 165.807 17.2762 164.487 17.2762C163.123 17.2762 162.068 17.73 161.323 18.6375C160.709 19.3865 160.35 20.3953 160.247 21.6638H168.608Z" fill="#202427"/>
</g>
<g clip-path="url(#clip0_3084_15046)">
<path d="M6.83671 20.0003C6.83671 23.3077 8.62955 26.6156 12.2158 27.8517C15.4622 28.9713 17.9195 27.8878 20.7122 26.4921C23.5486 25.074 26.7319 23.3487 31.4158 23.3487C36.0813 23.3487 40.0078 26.6938 40.0078 31.4335C40.0078 36.1645 36.2179 40 31.5432 40C38.7784 40 40.0624 28.8953 31.5432 28.8953C31.5638 28.8953 31.5838 28.8958 31.6043 28.8958C28.3859 28.8789 26.1966 29.94 24.1299 31.1318C19.9198 33.5579 17.752 34.7524 12.9839 34.2549C4.333 33.3518 0.0078125 26.6763 0.0078125 20.0003C0.0078125 13.3242 4.333 6.64817 12.9834 5.7456C17.752 5.24812 19.9192 6.44207 24.1293 8.86878C26.1966 10.06 28.3854 11.1217 31.6037 11.1042C31.5832 11.1042 31.5632 11.1047 31.5427 11.1047C40.0618 11.1047 38.7778 0 31.5427 0C36.2174 0 40.0073 3.8355 40.0073 8.56647C40.0073 13.3056 36.0807 16.6513 31.4152 16.6513C26.7314 16.6513 23.5487 14.9254 20.7116 13.5079C17.9189 12.1122 15.4617 11.0287 12.2152 12.1483C8.62955 13.3849 6.83671 16.6923 6.83671 20.0003Z" fill="url(#paint0_linear_3084_15046)"/>
<path d="M33.2534 39.7734C33.2173 39.7834 33.181 39.7931 33.1445 39.8025L33.1818 39.7922C33.2057 39.786 33.2296 39.7797 33.2534 39.7734Z" fill="url(#paint1_linear_3084_15046)"/>
<path d="M31.5427 28.8956C39.3392 28.8956 38.9249 38.1951 33.2532 39.7738C40.2583 37.8986 40.4548 27.2426 31.9311 26.3246C28.3409 25.9378 25.5954 27.3644 22.8409 28.7957C19.7319 30.4111 16.6115 32.0325 12.2525 31.0588C7.25913 29.9436 3.59295 26.066 3.59295 20C3.59295 13.9341 7.25913 10.0565 12.2525 8.94074C16.6117 7.96704 19.7323 9.58856 22.8415 11.2041C25.5959 12.6354 28.3414 14.062 31.9311 13.6755C40.4837 12.7543 40.2568 2.02907 33.1816 0.207536L33.1443 0.198242C38.9193 1.68685 39.3882 11.1055 31.5427 11.1055H31.6037C28.3854 11.1225 26.1966 10.0608 24.1293 8.86968C19.9192 6.44296 17.7515 5.24902 12.9834 5.7465C4.333 6.64906 0.0078125 13.3245 0.0078125 20.0006C0.0078125 26.6766 4.333 33.3521 12.9834 34.2552C17.7515 34.7527 19.9192 33.5583 24.1293 31.1321C26.196 29.9403 28.3854 28.8792 31.6037 28.8961C31.5958 28.8961 31.5879 28.8961 31.58 28.896C31.5676 28.8958 31.5552 28.8956 31.5427 28.8956Z" fill="url(#paint2_linear_3084_15046)"/>
<path d="M31.6289 0.000976562H31.6364C31.9375 0.0043998 32.2346 0.0242155 32.5272 0.0583907C32.7017 0.093204 32.8766 0.13209 33.0519 0.174636C32.6076 0.0680089 32.1331 0.00721741 31.6289 0.000976562Z" fill="url(#paint3_linear_3084_15046)"/>
<path d="M31.5557 39.9998H31.5547C32.0985 39.9988 32.6082 39.9346 33.0832 39.8174C32.8972 39.8634 32.7117 39.9049 32.5267 39.9418C32.2082 39.979 31.8843 39.9992 31.5557 39.9998Z" fill="url(#paint4_linear_3084_15046)"/>
<path d="M31.5453 0.000976562C25.9177 0.000976562 21.0259 2.23525 17.5137 5.88106L17.5153 5.87996C19.4945 6.28615 21.1971 7.18762 23.4853 8.49856C25.6044 6.87984 28.3285 5.97071 31.5453 6.02921C31.7808 6.03358 34.0533 6.12269 34.0533 8.56744C34.0533 9.96913 32.9303 11.1056 31.5453 11.1056C40.0638 11.1056 38.7804 0.000976562 31.5453 0.000976562Z" fill="url(#paint5_linear_3084_15046)"/>
<path d="M34.0523 31.4335C34.0523 33.8783 31.7798 33.9674 31.5443 33.9718C23.3995 34.1199 18.4126 28.0671 18.4131 19.9997C18.4131 17.4489 18.9123 15.0998 19.8516 13.0842C17.7957 12.0996 15.8635 11.4021 13.5775 11.7951L13.5787 11.7912L13.5791 11.7891C12.4874 14.2836 11.8538 17.0597 11.7695 19.9997C12.0888 31.1881 20.3664 39.9994 31.5443 39.9994C38.7794 39.9994 40.0628 28.8947 31.5443 28.8947C32.9293 28.8953 34.0523 30.0318 34.0523 31.4335Z" fill="url(#paint6_linear_3084_15046)"/>
<path opacity="0.07" d="M13.5742 28.2045C15.8602 28.5975 17.793 27.9 19.8489 26.916C20.7067 28.7566 21.9329 30.3196 23.4826 31.5031C21.1939 32.8135 19.4918 33.7156 17.5121 34.1217C15.8791 32.4259 14.5449 30.4267 13.5742 28.2045Z" fill="black"/>
<path opacity="0.1" d="M13.5742 11.7951C13.5742 11.7951 17.1091 11.6666 19.6053 13.6363C19.6831 13.4493 19.7635 13.2656 19.8489 13.0841C17.793 12.0996 15.8602 11.402 13.5742 11.7951ZM17.5099 34.1209C15.8797 32.4284 14.5476 30.433 13.5769 28.2146C13.6369 28.4289 14.6367 31.8932 16.818 34.2401C17.0535 34.2073 17.2836 34.1674 17.5099 34.1209ZM19.8483 26.9151C20.7061 28.7558 21.9323 30.3188 23.4816 31.5018C23.6917 31.381 23.9067 31.2579 24.1271 31.1306C21.6887 29.7076 19.8483 26.9151 19.8483 26.9151ZM17.5126 5.87891C19.4918 6.2851 21.1934 7.18657 23.4816 8.49751C23.6571 8.36357 23.8365 8.23456 24.0201 8.11046C19.8251 6.07025 17.5629 5.88274 17.5126 5.87891Z" fill="black"/>
<path opacity="0.07" d="M13.5742 11.7956C15.8602 11.4026 17.793 12.1001 19.8489 13.0847C20.7067 11.2435 21.9329 9.68106 23.4826 8.4975C21.1939 7.18711 19.4918 6.28564 17.5121 5.87891C15.8791 7.57416 14.5449 9.57337 13.5742 11.7956Z" fill="black"/>
<path d="M31.5444 0.000976562C25.9163 0.000976562 21.0234 2.23526 17.5117 5.88216L17.5149 5.87943C18.5737 6.09646 19.5535 6.45563 20.5853 6.94327C27.1463 0.999756 36.8991 0.672298 36.8991 8.30395V8.30504C38.5812 5.01513 36.4065 0.000976562 31.5444 0.000976562Z" fill="url(#paint7_linear_3084_15046)"/>
<path d="M31.5443 40C20.367 40 12.0893 31.1887 11.7695 20.0003C11.8538 17.0564 12.4896 14.2771 13.5834 11.7799C13.5823 11.7823 13.5814 11.7851 13.5805 11.7878C13.5795 11.7905 13.5786 11.7933 13.5775 11.7957C14.6919 11.6044 15.722 11.6722 16.7235 11.9056C15.5032 14.2317 14.754 16.9455 14.754 20.0003C14.754 36.6287 36.899 43.1959 36.899 31.6966V31.6954C38.5806 34.9848 36.4064 40 31.5443 40Z" fill="url(#paint8_linear_3084_15046)"/>
<path d="M31.543 0.000976562C36.8846 1.21944 38.3028 7.5715 33.8676 9.51922C33.5478 10.318 32.8369 10.9166 31.9759 11.0675L31.9646 11.0686C31.8592 11.0866 31.7517 11.0981 31.6426 11.1024C31.6966 11.1019 31.7501 11.1008 31.8036 11.0992C31.8159 11.0989 31.8282 11.0987 31.8406 11.0984C31.8775 11.0977 31.9145 11.097 31.9505 11.0953C37.1945 10.8679 38.4559 6.24734 36.7413 3.04161L36.7359 3.03123L36.7235 3.00881C35.7713 1.30063 33.9809 0.00126543 31.543 0.000976562Z" fill="url(#paint9_linear_3084_15046)"/>
<path d="M33.8684 30.4812C38.3038 32.429 36.8853 38.7814 31.543 39.9994C33.9813 39.9994 35.7715 38.7005 36.7243 36.9911L36.7367 36.9692L36.7421 36.9583C38.4561 33.7531 37.1954 29.132 31.9513 28.9046C31.9271 28.9038 31.9024 28.9032 31.8776 28.9027C31.8531 28.9021 31.8286 28.9016 31.8044 28.9008C31.7867 28.9004 31.769 28.9 31.7512 28.8995C31.7154 28.8987 31.6796 28.8978 31.6434 28.8975C31.7525 28.9018 31.86 28.9139 31.9654 28.9319L31.9767 28.933C32.8378 29.0839 33.5486 29.6825 33.8684 30.4812Z" fill="url(#paint10_linear_3084_15046)"/>
</g>
<defs>
<filter id="filter0_d_3084_15046" x="44.0078" y="12" width="129.982" height="24.8975" filterUnits="userSpaceOnUse" color-interpolation-filters="sRGB">
<feFlood flood-opacity="0" result="BackgroundImageFix"/>
<feColorMatrix in="SourceAlpha" type="matrix" values="0 0 0 0 0 0 0 0 0 0 0 0 0 0 0 0 0 0 127 0" result="hardAlpha"/>
<feOffset dy="4"/>
<feGaussianBlur stdDeviation="2"/>
<feComposite in2="hardAlpha" operator="out"/>
<feColorMatrix type="matrix" values="0 0 0 0 0 0 0 0 0 0 0 0 0 0 0 0 0 0 0.04 0"/>
<feBlend mode="normal" in2="BackgroundImageFix" result="effect1_dropShadow_3084_15046"/>
<feBlend mode="normal" in="SourceGraphic" in2="effect1_dropShadow_3084_15046" result="shape"/>
</filter>
<linearGradient id="paint0_linear_3084_15046" x1="39.4931" y1="19.9997" x2="0.00554594" y2="19.9997" gradientUnits="userSpaceOnUse">
<stop stop-color="#3AD3E8"/>
<stop offset="1" stop-color="#783DF2"/>
</linearGradient>
<linearGradient id="paint1_linear_3084_15046" x1="-0.144927" y1="19.9987" x2="38.0178" y2="19.9987" gradientUnits="userSpaceOnUse">
<stop stop-color="#8551F4"/>
<stop offset="1" stop-color="#58D5EC"/>
</linearGradient>
<linearGradient id="paint2_linear_3084_15046" x1="-0.145705" y1="20.0006" x2="38.0177" y2="20.0006" gradientUnits="userSpaceOnUse">
<stop stop-color="#8551F4"/>
<stop offset="1" stop-color="#58D5EC"/>
</linearGradient>
<linearGradient id="paint3_linear_3084_15046" x1="-0.145921" y1="20.0002" x2="38.0175" y2="20.0002" gradientUnits="userSpaceOnUse">
<stop stop-color="#8551F4"/>
<stop offset="1" stop-color="#58D5EC"/>
</linearGradient>
<linearGradient id="paint4_linear_3084_15046" x1="-0.146421" y1="20.0001" x2="38.017" y2="20.0001" gradientUnits="userSpaceOnUse">
<stop stop-color="#8551F4"/>
<stop offset="1" stop-color="#58D5EC"/>
</linearGradient>
<linearGradient id="paint5_linear_3084_15046" x1="38.9658" y1="20.0004" x2="13.2318" y2="20.0004" gradientUnits="userSpaceOnUse">
<stop stop-color="#A018FA"/>
<stop offset="0.43" stop-color="#D836FB"/>
<stop offset="1" stop-color="#F989D5"/>
</linearGradient>
<linearGradient id="paint6_linear_3084_15046" x1="38.9648" y1="20" x2="13.2308" y2="20" gradientUnits="userSpaceOnUse">
<stop stop-color="#A018FA"/>
<stop offset="0.43" stop-color="#D836FB"/>
<stop offset="1" stop-color="#F989D5"/>
</linearGradient>
<linearGradient id="paint7_linear_3084_15046" x1="11.686" y1="21.5981" x2="35.9129" y2="21.5981" gradientUnits="userSpaceOnUse">
<stop stop-color="#FCABD9"/>
<stop offset="0.48" stop-color="#E25BF7"/>
<stop offset="1" stop-color="#C041FB"/>
</linearGradient>
<linearGradient id="paint8_linear_3084_15046" x1="11.6859" y1="21.5982" x2="35.9128" y2="21.5982" gradientUnits="userSpaceOnUse">
<stop stop-color="#FCABD9"/>
<stop offset="0.48" stop-color="#E25BF7"/>
<stop offset="1" stop-color="#C041FB"/>
</linearGradient>
<linearGradient id="paint9_linear_3084_15046" x1="34.9995" y1="10.6904" x2="34.9995" y2="-1.38037" gradientUnits="userSpaceOnUse">
<stop stop-color="#970FDB"/>
<stop offset="1" stop-color="#CE4BF9"/>
</linearGradient>
<linearGradient id="paint10_linear_3084_15046" x1="34.9997" y1="30.0049" x2="34.9997" y2="41.0151" gradientUnits="userSpaceOnUse">
<stop stop-color="#970FDB"/>
<stop offset="1" stop-color="#CB49FA"/>
</linearGradient>
<clipPath id="clip0_3084_15046">
<rect width="40" height="40" fill="white" transform="translate(0.0078125)"/>
</clipPath>
</defs>
</svg>
